<?xml version="1.0" standalone="no"?>
<!DOCTYPE svg PUBLIC "-//W3C//DTD SVG 20010904//EN"
 "http://www.w3.org/TR/2001/REC-SVG-20010904/DTD/svg10.dtd">
<svg version="1.0" xmlns="http://www.w3.org/2000/svg"
 width="1920.000000pt" height="263.000000pt" viewBox="0 0 1920.000000 263.000000"
 preserveAspectRatio="xMidYMid meet">

<g transform="translate(0.000000,263.000000) scale(0.100000,-0.100000)"
fill="#000000" stroke="none">
<path d="M0 1315 l0 -1315 9600 0 9600 0 0 1315 0 1315 -9600 0 -9600 0 0
-1315z m3870 782 c47 -14 99 -32 115 -41 17 -9 35 -16 40 -16 13 0 105 -58
127 -80 8 -8 32 -30 52 -48 40 -36 45 -60 19 -90 -33 -37 -161 -140 -183 -147
-16 -5 -36 6 -88 48 -51 42 -82 59 -127 70 -33 9 -80 23 -105 32 -55 21 -148
14 -212 -15 -24 -11 -54 -20 -67 -20 -29 0 -113 -52 -155 -97 -42 -43 -63 -75
-100 -147 l-31 -61 1 -165 c1 -165 1 -165 33 -230 39 -79 66 -118 112 -157 42
-36 121 -83 140 -83 8 0 33 -10 54 -22 33 -17 58 -21 135 -22 82 -1 105 3 165
27 118 47 127 52 206 124 22 21 30 22 54 13 16 -6 50 -30 75 -53 25 -23 59
-53 77 -67 17 -14 34 -38 37 -53 6 -24 1 -34 -32 -65 -68 -64 -146 -118 -187
-132 -22 -7 -50 -19 -62 -27 -27 -18 -145 -50 -238 -64 -76 -12 -229 -5 -273
12 -15 6 -52 17 -83 25 -31 7 -72 22 -90 33 -19 10 -45 22 -58 26 -37 11 -160
104 -213 160 -72 78 -86 98 -142 209 -52 101 -54 109 -64 223 -19 213 4 371
71 488 6 11 18 34 27 51 25 47 107 145 153 183 91 73 144 108 182 121 22 7 49
19 60 26 11 7 58 21 105 33 47 11 94 22 105 25 11 3 79 3 150 1 101 -3 149 -9
215 -28z m6770 0 c93 -27 118 -38 241 -106 49 -27 139 -106 179 -157 37 -46
78 -111 85 -134 4 -14 16 -35 25 -47 10 -13 21 -40 25 -60 4 -21 13 -50 22
-66 19 -37 28 -248 15 -342 -21 -150 -101 -305 -224 -438 -24 -26 -48 -47 -52
-47 -5 0 -23 -12 -42 -27 -66 -55 -92 -73 -106 -73 -7 0 -35 -12 -63 -25 -27
-14 -57 -25 -66 -25 -9 0 -42 -10 -75 -22 -78 -29 -312 -33 -384 -7 -25 10
-65 22 -90 28 -25 6 -63 19 -85 31 -21 11 -47 20 -56 20 -13 0 -135 82 -174
118 -28 25 -96 106 -122 144 -36 54 -93 170 -93 190 0 9 -10 37 -22 64 -19 44
-21 66 -21 209 1 141 3 165 22 205 11 25 21 53 21 63 0 47 92 194 176 283 114
121 266 198 479 244 76 17 292 4 385 -23z m3540 4 c105 -35 191 -73 247 -108
53 -34 133 -109 133 -126 0 -20 -162 -175 -188 -180 -30 -6 -64 10 -127 58
-26 19 -66 38 -97 44 -29 7 -64 19 -78 28 -36 24 -214 25 -250 2 -14 -9 -46
-22 -72 -28 -58 -14 -97 -39 -168 -112 -72 -73 -96 -114 -120 -209 -36 -139
-16 -313 46 -415 33 -55 113 -137 164 -169 97 -61 279 -100 365 -78 78 20 168
59 179 78 7 12 13 98 16 222 5 188 7 205 25 218 15 11 49 14 150 12 127 -3
130 -4 142 -28 9 -18 13 -100 13 -306 l0 -280 -32 -30 c-42 -39 -127 -94 -146
-94 -8 0 -40 -11 -71 -24 -133 -57 -374 -90 -491 -67 -87 16 -200 49 -245 71
-23 11 -48 20 -57 20 -8 0 -44 22 -78 50 -34 27 -67 50 -72 50 -20 0 -188 208
-188 233 0 7 -9 31 -20 52 -19 36 -47 121 -71 215 -24 96 7 325 58 425 8 17
21 47 29 68 24 67 170 238 215 252 11 4 19 10 19 14 0 12 94 70 141 86 23 9
47 19 53 24 13 10 120 40 186 52 25 4 108 6 185 5 111 -3 153 -8 205 -25z
m-9346 -23 c14 -20 16 -95 16 -620 0 -658 -4 -622 63 -632 18 -3 180 -7 361
-10 282 -4 331 -7 345 -20 22 -23 29 -203 8 -231 -15 -20 -27 -20 -554 -20
-296 0 -546 3 -555 7 -17 7 -18 53 -18 767 l0 759 28 10 c15 6 86 11 159 11
125 1 133 0 147 -21z m1369 3 c16 -12 17 -78 17 -761 0 -683 -1 -749 -17 -761
-11 -10 -56 -15 -157 -17 -126 -3 -144 -2 -164 15 l-23 18 1 745 0 745 23 18
c19 15 41 17 163 15 102 -2 146 -7 157 -17z m1228 8 c46 -6 93 -16 104 -23 11
-7 39 -18 63 -25 91 -26 187 -103 256 -206 l58 -84 11 -112 c14 -145 -2 -311
-33 -344 -11 -12 -20 -26 -20 -32 0 -10 -47 -76 -70 -98 -5 -5 -22 -22 -38
-37 -15 -16 -31 -28 -36 -28 -5 0 -24 -11 -42 -25 -18 -14 -36 -25 -40 -25 -4
0 -32 -12 -63 -27 -55 -27 -59 -27 -321 -33 -276 -5 -298 -9 -320 -51 -7 -13
-10 -82 -8 -195 3 -164 2 -176 -16 -190 -29 -21 -283 -20 -314 2 l-22 15 0
749 0 749 22 15 c19 14 73 16 384 16 204 0 397 -5 445 -11z m1952 -8 c14 -11
17 -33 17 -117 0 -95 -2 -104 -22 -118 -19 -14 -73 -16 -381 -16 -378 0 -403
-3 -425 -48 -5 -9 -6 -98 -3 -197 l6 -179 25 -7 c14 -4 167 -7 341 -8 255 -1
319 -4 335 -15 17 -13 19 -26 17 -116 -1 -91 -3 -104 -24 -126 l-22 -24 -302
0 c-167 0 -316 -3 -333 -6 -21 -4 -34 -15 -41 -33 -6 -16 -10 -117 -8 -263 2
-183 -1 -240 -11 -250 -17 -17 -305 -19 -322 -2 -9 9 -12 194 -12 695 0 916
-2 828 25 839 12 5 255 8 573 7 450 -2 554 -5 567 -16z m2947 9 c69 -7 119
-17 145 -30 22 -11 48 -20 58 -20 30 0 119 -55 180 -111 39 -35 66 -72 90
-122 70 -147 72 -155 72 -262 0 -86 -4 -110 -28 -170 -15 -38 -32 -77 -38 -85
-5 -8 -16 -28 -23 -45 -17 -36 -135 -150 -165 -160 -12 -3 -28 -19 -36 -35
-18 -35 -9 -64 38 -123 19 -23 52 -70 75 -105 24 -34 51 -71 62 -82 11 -11 20
-26 20 -33 0 -7 22 -41 49 -74 66 -82 61 -85 -118 -91 -160 -5 -200 4 -230 51
-29 44 -58 89 -71 107 -6 8 -18 27 -28 41 -167 255 -151 243 -314 247 -72 2
-140 1 -153 -2 -37 -10 -44 -50 -39 -241 l5 -176 -35 -14 c-24 -10 -72 -15
-155 -15 -99 0 -122 3 -141 18 l-22 18 1 749 c1 690 3 751 18 763 21 15 624
17 783 2z m3706 -4 c16 -12 20 -29 23 -106 4 -115 -8 -150 -53 -150 -17 -1
-187 0 -377 0 l-347 1 -31 -27 -31 -26 0 -129 c0 -115 2 -131 20 -149 11 -11
30 -22 42 -25 13 -2 161 -6 329 -7 377 -4 352 7 347 -145 -2 -66 -8 -107 -16
-115 -10 -10 -93 -14 -352 -18 -259 -4 -342 -8 -352 -18 -9 -9 -14 -53 -16
-140 -3 -116 -1 -131 20 -172 l23 -45 395 -5 c217 -3 402 -9 412 -13 19 -10
25 -55 18 -157 -5 -67 -7 -76 -30 -87 -37 -19 -1118 -18 -1142 1 -17 12 -18
61 -18 761 0 682 1 750 17 767 15 17 46 18 558 18 451 0 544 -2 561 -14z
m1709 -31 c20 -24 39 -60 46 -90 6 -27 17 -57 24 -65 6 -8 18 -31 25 -50 8
-19 22 -46 32 -59 10 -13 18 -31 18 -40 0 -9 11 -37 25 -63 14 -26 25 -52 25
-57 0 -6 11 -27 25 -47 14 -20 25 -43 25 -51 0 -17 67 -160 79 -167 5 -3 12
-18 16 -33 3 -16 29 -75 56 -133 72 -150 84 -177 119 -255 17 -38 36 -77 41
-85 5 -8 15 -28 22 -44 7 -16 35 -77 64 -135 63 -129 60 -141 -25 -141 -51 0
-62 4 -84 27 -31 34 -48 66 -48 91 0 11 -7 25 -14 32 -8 6 -22 33 -31 60 -9
27 -22 53 -30 60 -7 6 -16 25 -19 43 -3 18 -19 47 -35 65 l-30 32 -431 0 -432
0 -28 -30 c-15 -16 -31 -46 -35 -67 -4 -21 -15 -49 -25 -63 -9 -14 -21 -36
-25 -50 -4 -14 -16 -36 -26 -49 -11 -13 -19 -31 -19 -41 0 -37 -23 -81 -51
-95 -38 -20 -102 -19 -129 3 l-21 17 31 60 c17 33 37 67 44 75 7 8 18 37 25
65 6 27 17 55 22 61 22 26 79 150 79 171 0 12 4 24 9 27 15 9 81 135 81 154 0
9 7 28 14 42 41 73 86 169 92 195 4 17 10 35 15 40 18 24 78 153 84 182 3 17
13 37 21 44 8 6 14 16 14 21 0 9 12 35 85 193 13 28 38 80 55 117 17 37 36 69
43 71 7 3 43 4 80 3 66 -1 69 -2 102 -41z m1123 33 c17 -17 17 -1519 0 -1536
-17 -17 -100 -15 -126 4 l-22 15 0 746 c0 849 -7 783 85 783 28 0 56 -5 63
-12z m-17729 -230 c47 -28 119 -70 159 -94 40 -24 75 -44 77 -44 2 0 62 -34
132 -76 182 -108 247 -147 251 -150 2 -1 1 -11 -2 -21 -8 -26 -38 -42 -120
-63 l-71 -19 -40 23 c-22 12 -130 75 -240 139 -109 65 -204 117 -210 117 -39
-1 -40 -8 -40 -319 0 -267 2 -302 17 -317 21 -21 19 -22 301 145 l207 123 76
-18 c116 -28 158 -73 97 -105 -16 -7 -55 -30 -88 -50 -33 -19 -80 -47 -105
-61 -25 -14 -137 -80 -250 -147 -255 -151 -275 -159 -337 -140 -31 10 -56 27
-77 53 l-31 38 -3 444 c-3 466 0 502 41 549 29 33 93 56 136 49 19 -3 73 -28
120 -56z m721 -325 c0 -31 47 -120 71 -137 13 -9 49 -24 79 -33 l55 -16 -60
-19 c-74 -23 -118 -69 -136 -139 -13 -49 -29 -66 -29 -30 0 31 -35 104 -63
129 -14 13 -51 32 -83 41 l-58 18 59 18 c76 22 117 62 135 133 13 51 30 70 30
35z"/>
<path d="M10320 1831 c-19 -5 -48 -16 -65 -25 -16 -9 -42 -16 -56 -16 -14 0
-44 -12 -65 -26 -117 -80 -184 -180 -225 -339 -17 -62 -4 -226 21 -274 11 -22
20 -49 20 -59 0 -10 10 -31 23 -46 109 -132 152 -167 257 -204 102 -36 162
-45 223 -34 79 16 164 49 219 86 68 46 156 151 168 201 6 22 17 60 25 85 27
83 30 180 7 256 -11 38 -23 85 -27 104 -17 78 -192 250 -256 250 -13 0 -44 10
-69 21 -50 23 -146 32 -200 20z"/>
<path d="M6972 1809 c-17 -12 -35 -31 -38 -44 -3 -13 -4 -119 -2 -237 3 -232
7 -247 61 -269 19 -8 76 -10 185 -6 200 7 259 25 337 102 56 57 65 81 65 185
-1 100 -19 143 -92 217 -13 13 -38 26 -58 29 -19 3 -70 14 -112 25 -55 13
-112 19 -195 19 -102 0 -122 -3 -151 -21z"/>
<path d="M11929 1823 c-51 -8 -56 -35 -53 -290 2 -136 7 -240 13 -251 15 -28
55 -32 226 -27 170 5 238 22 307 77 45 35 85 112 94 182 9 64 -30 183 -74 223
-41 38 -58 44 -187 72 -94 20 -247 26 -326 14z"/>
<path d="M17600 1881 c-5 -11 -10 -28 -10 -39 0 -11 -9 -30 -20 -44 -10 -14
-26 -43 -34 -64 -36 -99 -59 -149 -77 -172 -10 -14 -19 -31 -19 -39 0 -8 -22
-59 -50 -115 -27 -55 -50 -109 -50 -118 0 -10 -9 -29 -20 -43 -11 -14 -20 -31
-20 -39 0 -8 -9 -31 -20 -53 -11 -22 -20 -40 -20 -42 0 -1 14 -10 31 -19 28
-14 74 -16 347 -15 257 2 320 5 343 17 16 8 29 16 29 17 0 12 -37 108 -51 132
-9 16 -20 44 -24 62 -3 17 -13 37 -21 44 -8 6 -14 17 -14 24 0 6 -11 32 -23
56 -13 24 -30 62 -37 84 -7 22 -24 60 -37 84 -12 24 -23 50 -23 56 0 7 -6 18
-14 24 -7 6 -19 31 -26 56 -7 25 -18 50 -26 56 -7 5 -16 25 -19 42 -4 18 -14
40 -23 50 -20 23 -59 22 -72 -2z"/>
</g>
</svg>
